<svg class="rich-terminal" viewBox="0 0 1482 830.8" xmlns="http://www.w3.org/2000/svg">
    <!-- Generated with Rich https://www.textualize.io -->
    <style>

    @font-face {
        font-family: "Fira Code";
        src: local("FiraCode-Regular"),
                url("https://cdnjs.cloudflare.com/ajax/libs/firacode/6.2.0/woff2/FiraCode-Regular.woff2") format("woff2"),
                url("https://cdnjs.cloudflare.com/ajax/libs/firacode/6.2.0/woff/FiraCode-Regular.woff") format("woff");
        font-style: normal;
        font-weight: 400;
    }
    @font-face {
        font-family: "Fira Code";
        src: local("FiraCode-Bold"),
                url("https://cdnjs.cloudflare.com/ajax/libs/firacode/6.2.0/woff2/FiraCode-Bold.woff2") format("woff2"),
                url("https://cdnjs.cloudflare.com/ajax/libs/firacode/6.2.0/woff/FiraCode-Bold.woff") format("woff");
        font-style: bold;
        font-weight: 700;
    }

    .terminal-1541186607-matrix {
        font-family: Fira Code, monospace;
        font-size: 20px;
        line-height: 24.4px;
        font-variant-east-asian: full-width;
    }

    .terminal-1541186607-title {
        font-size: 18px;
        font-weight: bold;
        font-family: arial;
    }

    .terminal-1541186607-r1 { fill: #c5c8c6 }
.terminal-1541186607-r2 { fill: #e0e0e0 }
.terminal-1541186607-r3 { fill: #a0a3a6 }
.terminal-1541186607-r4 { fill: #c5c6c7 }
.terminal-1541186607-r5 { fill: #4494a5 }
.terminal-1541186607-r6 { fill: #b16d1e }
.terminal-1541186607-r7 { fill: #c4c5b5;font-weight: bold }
.terminal-1541186607-r8 { fill: #c4c5b5 }
.terminal-1541186607-r9 { fill: #58d1eb }
.terminal-1541186607-r10 { fill: #fd971f }
.terminal-1541186607-r11 { fill: #98e024 }
.terminal-1541186607-r12 { fill: #1e1e1e }
.terminal-1541186607-r13 { fill: #9e9e9e;font-style: italic; }
.terminal-1541186607-r14 { fill: #e0e0e0;font-weight: bold }
.terminal-1541186607-r15 { fill: #eacca2 }
.terminal-1541186607-r16 { fill: #211505;font-weight: bold }
.terminal-1541186607-r17 { fill: #1e1e1e;font-weight: bold }
.terminal-1541186607-r18 { fill: #f4005f }
.terminal-1541186607-r19 { fill: #714cb2 }
    </style>

    <defs>
    <clipPath id="terminal-1541186607-clip-terminal">
      <rect x="0" y="0" width="1463.0" height="779.8" />
    </clipPath>
    <clipPath id="terminal-1541186607-line-0">
    <rect x="0" y="1.5" width="1464" height="24.65"/>
            </clipPath>
<clipPath id="terminal-1541186607-line-1">
    <rect x="0" y="25.9" width="1464" height="24.65"/>
            </clipPath>
<clipPath id="terminal-1541186607-line-2">
    <rect x="0" y="50.3" width="1464" height="24.65"/>
            </clipPath>
<clipPath id="terminal-1541186607-line-3">
    <rect x="0" y="74.7" width="1464" height="24.65"/>
            </clipPath>
<clipPath id="terminal-1541186607-line-4">
    <rect x="0" y="99.1" width="1464" height="24.65"/>
            </clipPath>
<clipPath id="terminal-1541186607-line-5">
    <rect x="0" y="123.5" width="1464" height="24.65"/>
            </clipPath>
<clipPath id="terminal-1541186607-line-6">
    <rect x="0" y="147.9" width="1464" height="24.65"/>
            </clipPath>
<clipPath id="terminal-1541186607-line-7">
    <rect x="0" y="172.3" width="1464" height="24.65"/>
            </clipPath>
<clipPath id="terminal-1541186607-line-8">
    <rect x="0" y="196.7" width="1464" height="24.65"/>
            </clipPath>
<clipPath id="terminal-1541186607-line-9">
    <rect x="0" y="221.1" width="1464" height="24.65"/>
            </clipPath>
<clipPath id="terminal-1541186607-line-10">
    <rect x="0" y="245.5" width="1464" height="24.65"/>
            </clipPath>
<clipPath id="terminal-1541186607-line-11">
    <rect x="0" y="269.9" width="1464" height="24.65"/>
            </clipPath>
<clipPath id="terminal-1541186607-line-12">
    <rect x="0" y="294.3" width="1464" height="24.65"/>
            </clipPath>
<clipPath id="terminal-1541186607-line-13">
    <rect x="0" y="318.7" width="1464" height="24.65"/>
            </clipPath>
<clipPath id="terminal-1541186607-line-14">
    <rect x="0" y="343.1" width="1464" height="24.65"/>
            </clipPath>
<clipPath id="terminal-1541186607-line-15">
    <rect x="0" y="367.5" width="1464" height="24.65"/>
            </clipPath>
<clipPath id="terminal-1541186607-line-16">
    <rect x="0" y="391.9" width="1464" height="24.65"/>
            </clipPath>
<clipPath id="terminal-1541186607-line-17">
    <rect x="0" y="416.3" width="1464" height="24.65"/>
            </clipPath>
<clipPath id="terminal-1541186607-line-18">
    <rect x="0" y="440.7" width="1464" height="24.65"/>
            </clipPath>
<clipPath id="terminal-1541186607-line-19">
    <rect x="0" y="465.1" width="1464" height="24.65"/>
            </clipPath>
<clipPath id="terminal-1541186607-line-20">
    <rect x="0" y="489.5" width="1464" height="24.65"/>
            </clipPath>
<clipPath id="terminal-1541186607-line-21">
    <rect x="0" y="513.9" width="1464" height="24.65"/>
            </clipPath>
<clipPath id="terminal-1541186607-line-22">
    <rect x="0" y="538.3" width="1464" height="24.65"/>
            </clipPath>
<clipPath id="terminal-1541186607-line-23">
    <rect x="0" y="562.7" width="1464" height="24.65"/>
            </clipPath>
<clipPath id="terminal-1541186607-line-24">
    <rect x="0" y="587.1" width="1464" height="24.65"/>
            </clipPath>
<clipPath id="terminal-1541186607-line-25">
    <rect x="0" y="611.5" width="1464" height="24.65"/>
            </clipPath>
<clipPath id="terminal-1541186607-line-26">
    <rect x="0" y="635.9" width="1464" height="24.65"/>
            </clipPath>
<clipPath id="terminal-1541186607-line-27">
    <rect x="0" y="660.3" width="1464" height="24.65"/>
            </clipPath>
<clipPath id="terminal-1541186607-line-28">
    <rect x="0" y="684.7" width="1464" height="24.65"/>
            </clipPath>
<clipPath id="terminal-1541186607-line-29">
    <rect x="0" y="709.1" width="1464" height="24.65"/>
            </clipPath>
<clipPath id="terminal-1541186607-line-30">
    <rect x="0" y="733.5" width="1464" height="24.65"/>
            </clipPath>
    </defs>

    <rect fill="#292929" stroke="rgba(255,255,255,0.35)" stroke-width="1" x="1" y="1" width="1480" height="828.8" rx="8"/><text class="terminal-1541186607-title" fill="#c5c8c6" text-anchor="middle" x="740" y="27">jvim</text>
            <g transform="translate(26,22)">
            <circle cx="0" cy="0" r="7" fill="#ff5f57"/>
            <circle cx="22" cy="0" r="7" fill="#febc2e"/>
            <circle cx="44" cy="0" r="7" fill="#28c840"/>
            </g>
        
    <g transform="translate(9, 41)" clip-path="url(#terminal-1541186607-clip-terminal)">
    <rect fill="#242f38" x="0" y="1.5" width="12.2" height="24.65" shape-rendering="crispEdges"/><rect fill="#242f38" x="12.2" y="1.5" width="12.2" height="24.65" shape-rendering="crispEdges"/><rect fill="#242f38" x="24.4" y="1.5" width="61" height="24.65" shape-rendering="crispEdges"/><rect fill="#242f38" x="85.4" y="1.5" width="12.2" height="24.65" shape-rendering="crispEdges"/><rect fill="#242f38" x="97.6" y="1.5" width="463.6" height="24.65" shape-rendering="crispEdges"/><rect fill="#242f38" x="561.2" y="1.5" width="134.2" height="24.65" shape-rendering="crispEdges"/><rect fill="#242f38" x="695.4" y="1.5" width="36.6" height="24.65" shape-rendering="crispEdges"/><rect fill="#242f38" x="732" y="1.5" width="134.2" height="24.65" shape-rendering="crispEdges"/><rect fill="#242f38" x="866.2" y="1.5" width="475.8" height="24.65" shape-rendering="crispEdges"/><rect fill="#2c363f" x="1342" y="1.5" width="12.2" height="24.65" shape-rendering="crispEdges"/><rect fill="#2c363f" x="1354.2" y="1.5" width="97.6" height="24.65" shape-rendering="crispEdges"/><rect fill="#2c363f" x="1451.8" y="1.5" width="12.2" height="24.65" shape-rendering="crispEdges"/><rect fill="#1e1e1e" x="0" y="25.9" width="12.2" height="24.65" shape-rendering="crispEdges"/><rect fill="#1e1e1e" x="12.2" y="25.9" width="48.8" height="24.65" shape-rendering="crispEdges"/><rect fill="#1e1e1e" x="61" y="25.9" width="36.6" height="24.65" shape-rendering="crispEdges"/><rect fill="#1e1e1e" x="97.6" y="25.9" width="12.2" height="24.65" shape-rendering="crispEdges"/><rect fill="#1e1e1e" x="109.8" y="25.9" width="1342" height="24.65" shape-rendering="crispEdges"/><rect fill="#1e1e1e" x="1451.8" y="25.9" width="12.2" height="24.65" shape-rendering="crispEdges"/><rect fill="#1e1e1e" x="0" y="50.3" width="12.2" height="24.65" shape-rendering="crispEdges"/><rect fill="#1e1e1e" x="12.2" y="50.3" width="48.8" height="24.65" shape-rendering="crispEdges"/><rect fill="#1e1e1e" x="61" y="50.3" width="36.6" height="24.65" shape-rendering="crispEdges"/><rect fill="#1e1e1e" x="97.6" y="50.3" width="48.8" height="24.65" shape-rendering="crispEdges"/><rect fill="#1e1e1e" x="146.4" y="50.3" width="48.8" height="24.65" shape-rendering="crispEdges"/><rect fill="#1e1e1e" x="195.2" y="50.3" width="24.4" height="24.65" shape-rendering="crispEdges"/><rect fill="#1e1e1e" x="219.6" y="50.3" width="12.2" height="24.65" shape-rendering="crispEdges"/><rect fill="#1e1e1e" x="231.8" y="50.3" width="12.2" height="24.65" shape-rendering="crispEdges"/><rect fill="#1e1e1e" x="244" y="50.3" width="1207.8" height="24.65" shape-rendering="crispEdges"/><rect fill="#1e1e1e" x="1451.8" y="50.3" width="12.2" height="24.65" shape-rendering="crispEdges"/><rect fill="#1e1e1e" x="0" y="74.7" width="12.2" height="24.65" shape-rendering="crispEdges"/><rect fill="#1e1e1e" x="12.2" y="74.7" width="48.8" height="24.65" shape-rendering="crispEdges"/><rect fill="#1e1e1e" x="61" y="74.7" width="36.6" height="24.65" shape-rendering="crispEdges"/><rect fill="#1e1e1e" x="97.6" y="74.7" width="48.8" height="24.65" shape-rendering="crispEdges"/><rect fill="#1e1e1e" x="146.4" y="74.7" width="73.2" height="24.65" shape-rendering="crispEdges"/><rect fill="#1e1e1e" x="219.6" y="74.7" width="24.4" height="24.65" shape-rendering="crispEdges"/><rect fill="#1e1e1e" x="244" y="74.7" width="85.4" height="24.65" shape-rendering="crispEdges"/><rect fill="#1e1e1e" x="329.4" y="74.7" width="12.2" height="24.65" shape-rendering="crispEdges"/><rect fill="#1e1e1e" x="341.6" y="74.7" width="1110.2" height="24.65" shape-rendering="crispEdges"/><rect fill="#1e1e1e" x="1451.8" y="74.7" width="12.2" height="24.65" shape-rendering="crispEdges"/><rect fill="#1e1e1e" x="0" y="99.1" width="12.2" height="24.65" shape-rendering="crispEdges"/><rect fill="#1e1e1e" x="12.2" y="99.1" width="48.8" height="24.65" shape-rendering="crispEdges"/><rect fill="#1e1e1e" x="61" y="99.1" width="36.6" height="24.65" shape-rendering="crispEdges"/><rect fill="#1e1e1e" x="97.6" y="99.1" width="48.8" height="24.65" shape-rendering="crispEdges"/><rect fill="#1e1e1e" x="146.4" y="99.1" width="73.2" height="24.65" shape-rendering="crispEdges"/><rect fill="#1e1e1e" x="219.6" y="99.1" width="24.4" height="24.65" shape-rendering="crispEdges"/><rect fill="#1e1e1e" x="244" y="99.1" width="85.4" height="24.65" shape-rendering="crispEdges"/><rect fill="#1e1e1e" x="329.4" y="99.1" width="12.2" height="24.65" shape-rendering="crispEdges"/><rect fill="#1e1e1e" x="341.6" y="99.1" width="1110.2" height="24.65" shape-rendering="crispEdges"/><rect fill="#1e1e1e" x="1451.8" y="99.1" width="12.2" height="24.65" shape-rendering="crispEdges"/><rect fill="#1e1e1e" x="0" y="123.5" width="12.2" height="24.65" shape-rendering="crispEdges"/><rect fill="#1e1e1e" x="12.2" y="123.5" width="48.8" height="24.65" shape-rendering="crispEdges"/><rect fill="#1e1e1e" x="61" y="123.5" width="36.6" height="24.65" shape-rendering="crispEdges"/><rect fill="#c4c5b5" x="97.6" y="123.5" width="12.2" height="24.65" shape-rendering="crispEdges"/><rect fill="#1e1e1e" x="109.8" y="123.5" width="36.6" height="24.65" shape-rendering="crispEdges"/><rect fill="#1e1e1e" x="146.4" y="123.5" width="97.6" height="24.65" shape-rendering="crispEdges"/><rect fill="#1e1e1e" x="244" y="123.5" width="24.4" height="24.65" shape-rendering="crispEdges"/><rect fill="#1e1e1e" x="268.4" y="123.5" width="12.2" height="24.65" shape-rendering="crispEdges"/><rect fill="#1e1e1e" x="280.6" y="123.5" width="12.2" height="24.65" shape-rendering="crispEdges"/><rect fill="#1e1e1e" x="292.8" y="123.5" width="695.4" height="24.65" shape-rendering="crispEdges"/><rect fill="#1e1e1e" x="988.2" y="123.5" width="12.2" height="24.65" shape-rendering="crispEdges"/><rect fill="#1e1e1e" x="1000.4" y="123.5" width="12.2" height="24.65" shape-rendering="crispEdges"/><rect fill="#1e1e1e" x="1012.6" y="123.5" width="12.2" height="24.65" shape-rendering="crispEdges"/><rect fill="#1e1e1e" x="1024.8" y="123.5" width="427" height="24.65" shape-rendering="crispEdges"/><rect fill="#1e1e1e" x="1451.8" y="123.5" width="12.2" height="24.65" shape-rendering="crispEdges"/><rect fill="#1e1e1e" x="0" y="147.9" width="12.2" height="24.65" shape-rendering="crispEdges"/><rect fill="#1e1e1e" x="12.2" y="147.9" width="48.8" height="24.65" shape-rendering="crispEdges"/><rect fill="#1e1e1e" x="61" y="147.9" width="36.6" height="24.65" shape-rendering="crispEdges"/><rect fill="#1e1e1e" x="97.6" y="147.9" width="48.8" height="24.65" shape-rendering="crispEdges"/><rect fill="#1e1e1e" x="146.4" y="147.9" width="61" height="24.65" shape-rendering="crispEdges"/><rect fill="#1e1e1e" x="207.4" y="147.9" width="24.4" height="24.65" shape-rendering="crispEdges"/><rect fill="#1e1e1e" x="231.8" y="147.9" width="256.2" height="24.65" shape-rendering="crispEdges"/><rect fill="#1e1e1e" x="488" y="147.9" width="183" height="24.65" shape-rendering="crispEdges"/><rect fill="#1e1e1e" x="671" y="147.9" width="780.8" height="24.65" shape-rendering="crispEdges"/><rect fill="#1e1e1e" x="1451.8" y="147.9" width="12.2" height="24.65" shape-rendering="crispEdges"/><rect fill="#1e1e1e" x="0" y="172.3" width="12.2" height="24.65" shape-rendering="crispEdges"/><rect fill="#1e1e1e" x="12.2" y="172.3" width="48.8" height="24.65" shape-rendering="crispEdges"/><rect fill="#1e1e1e" x="61" y="172.3" width="36.6" height="24.65" shape-rendering="crispEdges"/><rect fill="#1e1e1e" x="97.6" y="172.3" width="12.2" height="24.65" shape-rendering="crispEdges"/><rect fill="#1e1e1e" x="109.8" y="172.3" width="1342" height="24.65" shape-rendering="crispEdges"/><rect fill="#1e1e1e" x="1451.8" y="172.3" width="12.2" height="24.65" shape-rendering="crispEdges"/><rect fill="#1e1e1e" x="0" y="196.7" width="12.2" height="24.65" shape-rendering="crispEdges"/><rect fill="#1e1e1e" x="12.2" y="196.7" width="48.8" height="24.65" shape-rendering="crispEdges"/><rect fill="#1e1e1e" x="61" y="196.7" width="36.6" height="24.65" shape-rendering="crispEdges"/><rect fill="#1e1e1e" x="97.6" y="196.7" width="1354.2" height="24.65" shape-rendering="crispEdges"/><rect fill="#1e1e1e" x="1451.8" y="196.7" width="12.2" height="24.65" shape-rendering="crispEdges"/><rect fill="#1e1e1e" x="0" y="221.1" width="12.2" height="24.65" shape-rendering="crispEdges"/><rect fill="#1e1e1e" x="12.2" y="221.1" width="48.8" height="24.65" shape-rendering="crispEdges"/><rect fill="#1e1e1e" x="61" y="221.1" width="36.6" height="24.65" shape-rendering="crispEdges"/><rect fill="#1e1e1e" x="97.6" y="221.1" width="12.2" height="24.65" shape-rendering="crispEdges"/><rect fill="#1e1e1e" x="109.8" y="221.1" width="170.8" height="24.65" shape-rendering="crispEdges"/><rect fill="#1e1e1e" x="280.6" y="221.1" width="1171.2" height="24.65" shape-rendering="crispEdges"/><rect fill="#1e1e1e" x="1451.8" y="221.1" width="12.2" height="24.65" shape-rendering="crispEdges"/><rect fill="#1e1e1e" x="0" y="245.5" width="12.2" height="24.65" shape-rendering="crispEdges"/><rect fill="#1e1e1e" x="12.2" y="245.5" width="48.8" height="24.65" shape-rendering="crispEdges"/><rect fill="#1e1e1e" x="61" y="245.5" width="36.6" height="24.65" shape-rendering="crispEdges"/><rect fill="#1e1e1e" x="97.6" y="245.5" width="1354.2" height="24.65" shape-rendering="crispEdges"/><rect fill="#1e1e1e" x="1451.8" y="245.5" width="12.2" height="24.65" shape-rendering="crispEdges"/><rect fill="#1e1e1e" x="0" y="269.9" width="12.2" height="24.65" shape-rendering="crispEdges"/><rect fill="#1e1e1e" x="12.2" y="269.9" width="48.8" height="24.65" shape-rendering="crispEdges"/><rect fill="#1e1e1e" x="61" y="269.9" width="36.6" height="24.65" shape-rendering="crispEdges"/><rect fill="#1e1e1e" x="97.6" y="269.9" width="12.2" height="24.65" shape-rendering="crispEdges"/><rect fill="#1e1e1e" x="109.8" y="269.9" width="1342" height="24.65" shape-rendering="crispEdges"/><rect fill="#1e1e1e" x="1451.8" y="269.9" width="12.2" height="24.65" shape-rendering="crispEdges"/><rect fill="#1e1e1e" x="0" y="294.3" width="12.2" height="24.65" shape-rendering="crispEdges"/><rect fill="#1e1e1e" x="12.2" y="294.3" width="48.8" height="24.65" shape-rendering="crispEdges"/><rect fill="#1e1e1e" x="61" y="294.3" width="36.6" height="24.65" shape-rendering="crispEdges"/><rect fill="#1e1e1e" x="97.6" y="294.3" width="48.8" height="24.65" shape-rendering="crispEdges"/><rect fill="#1e1e1e" x="146.4" y="294.3" width="48.8" height="24.65" shape-rendering="crispEdges"/><rect fill="#1e1e1e" x="195.2" y="294.3" width="24.4" height="24.65" shape-rendering="crispEdges"/><rect fill="#1e1e1e" x="219.6" y="294.3" width="12.2" height="24.65" shape-rendering="crispEdges"/><rect fill="#1e1e1e" x="231.8" y="294.3" width="12.2" height="24.65" shape-rendering="crispEdges"/><rect fill="#1e1e1e" x="244" y="294.3" width="1207.8" height="24.65" shape-rendering="crispEdges"/><rect fill="#1e1e1e" x="1451.8" y="294.3" width="12.2" height="24.65" shape-rendering="crispEdges"/><rect fill="#1e1e1e" x="0" y="318.7" width="12.2" height="24.65" shape-rendering="crispEdges"/><rect fill="#1e1e1e" x="12.2" y="318.7" width="48.8" height="24.65" shape-rendering="crispEdges"/><rect fill="#1e1e1e" x="61" y="318.7" width="36.6" height="24.65" shape-rendering="crispEdges"/><rect fill="#1e1e1e" x="97.6" y="318.7" width="48.8" height="24.65" shape-rendering="crispEdges"/><rect fill="#1e1e1e" x="146.4" y="318.7" width="73.2" height="24.65" shape-rendering="crispEdges"/><rect fill="#1e1e1e" x="219.6" y="318.7" width="24.4" height="24.65" shape-rendering="crispEdges"/><rect fill="#1e1e1e" x="244" y="318.7" width="109.8" height="24.65" shape-rendering="crispEdges"/><rect fill="#1e1e1e" x="353.8" y="318.7" width="12.2" height="24.65" shape-rendering="crispEdges"/><rect fill="#1e1e1e" x="366" y="318.7" width="1085.8" height="24.65" shape-rendering="crispEdges"/><rect fill="#1e1e1e" x="1451.8" y="318.7" width="12.2" height="24.65" shape-rendering="crispEdges"/><rect fill="#1e1e1e" x="0" y="343.1" width="12.2" height="24.65" shape-rendering="crispEdges"/><rect fill="#1e1e1e" x="12.2" y="343.1" width="48.8" height="24.65" shape-rendering="crispEdges"/><rect fill="#1e1e1e" x="61" y="343.1" width="36.6" height="24.65" shape-rendering="crispEdges"/><rect fill="#1e1e1e" x="97.6" y="343.1" width="48.8" height="24.65" shape-rendering="crispEdges"/><rect fill="#1e1e1e" x="146.4" y="343.1" width="73.2" height="24.65" shape-rendering="crispEdges"/><rect fill="#1e1e1e" x="219.6" y="343.1" width="24.4" height="24.65" shape-rendering="crispEdges"/><rect fill="#1e1e1e" x="244" y="343.1" width="134.2" height="24.65" shape-rendering="crispEdges"/><rect fill="#1e1e1e" x="378.2" y="343.1" width="12.2" height="24.65" shape-rendering="crispEdges"/><rect fill="#1e1e1e" x="390.4" y="343.1" width="1061.4" height="24.65" shape-rendering="crispEdges"/><rect fill="#1e1e1e" x="1451.8" y="343.1" width="12.2" height="24.65" shape-rendering="crispEdges"/><rect fill="#1e1e1e" x="0" y="367.5" width="12.2" height="24.65" shape-rendering="crispEdges"/><rect fill="#005f00" x="12.2" y="367.5" width="97.6" height="24.65" shape-rendering="crispEdges"/><rect fill="#5f5f5f" x="109.8" y="367.5" width="48.8" height="24.65" shape-rendering="crispEdges"/><rect fill="#1e1e1e" x="158.6" y="367.5" width="1073.6" height="24.65" shape-rendering="crispEdges"/><rect fill="#1e1e1e" x="1232.2" y="367.5" width="195.2" height="24.65" shape-rendering="crispEdges"/><rect fill="#1e1e1e" x="1427.4" y="367.5" width="24.4" height="24.65" shape-rendering="crispEdges"/><rect fill="#1e1e1e" x="1451.8" y="367.5" width="12.2" height="24.65" shape-rendering="crispEdges"/><rect fill="#1e1e1e" x="0" y="391.9" width="12.2" height="24.65" shape-rendering="crispEdges"/><rect fill="#1e1e1e" x="12.2" y="391.9" width="0" height="24.65" shape-rendering="crispEdges"/><rect fill="#1e1e1e" x="12.2" y="391.9" width="1439.6" height="24.65" shape-rendering="crispEdges"/><rect fill="#1e1e1e" x="1451.8" y="391.9" width="12.2" height="24.65" shape-rendering="crispEdges"/><rect fill="#fea62b" x="0" y="416.3" width="12.2" height="24.65" shape-rendering="crispEdges"/><rect fill="#fea62b" x="12.2" y="416.3" width="219.6" height="24.65" shape-rendering="crispEdges"/><rect fill="#fea62b" x="231.8" y="416.3" width="12.2" height="24.65" shape-rendering="crispEdges"/><rect fill="#fea62b" x="244" y="416.3" width="109.8" height="24.65" shape-rendering="crispEdges"/><rect fill="#fea62b" x="353.8" y="416.3" width="1061.4" height="24.65" shape-rendering="crispEdges"/><rect fill="#fea62b" x="1415.2" y="416.3" width="36.6" height="24.65" shape-rendering="crispEdges"/><rect fill="#fea62b" x="1451.8" y="416.3" width="12.2" height="24.65" shape-rendering="crispEdges"/><rect fill="#1e1e1e" x="0" y="440.7" width="12.2" height="24.65" shape-rendering="crispEdges"/><rect fill="#1e1e1e" x="12.2" y="440.7" width="48.8" height="24.65" shape-rendering="crispEdges"/><rect fill="#c4c5b5" x="61" y="440.7" width="12.2" height="24.65" shape-rendering="crispEdges"/><rect fill="#1e1e1e" x="73.2" y="440.7" width="1378.6" height="24.65" shape-rendering="crispEdges"/><rect fill="#1e1e1e" x="1451.8" y="440.7" width="12.2" height="24.65" shape-rendering="crispEdges"/><rect fill="#1e1e1e" x="0" y="465.1" width="12.2" height="24.65" shape-rendering="crispEdges"/><rect fill="#1e1e1e" x="12.2" y="465.1" width="48.8" height="24.65" shape-rendering="crispEdges"/><rect fill="#1e1e1e" x="61" y="465.1" width="48.8" height="24.65" shape-rendering="crispEdges"/><rect fill="#1e1e1e" x="109.8" y="465.1" width="85.4" height="24.65" shape-rendering="crispEdges"/><rect fill="#1e1e1e" x="195.2" y="465.1" width="24.4" height="24.65" shape-rendering="crispEdges"/><rect fill="#1e1e1e" x="219.6" y="465.1" width="73.2" height="24.65" shape-rendering="crispEdges"/><rect fill="#1e1e1e" x="292.8" y="465.1" width="12.2" height="24.65" shape-rendering="crispEdges"/><rect fill="#1e1e1e" x="305" y="465.1" width="1146.8" height="24.65" shape-rendering="crispEdges"/><rect fill="#1e1e1e" x="1451.8" y="465.1" width="12.2" height="24.65" shape-rendering="crispEdges"/><rect fill="#1e1e1e" x="0" y="489.5" width="12.2" height="24.65" shape-rendering="crispEdges"/><rect fill="#1e1e1e" x="12.2" y="489.5" width="48.8" height="24.65" shape-rendering="crispEdges"/><rect fill="#1e1e1e" x="61" y="489.5" width="48.8" height="24.65" shape-rendering="crispEdges"/><rect fill="#1e1e1e" x="109.8" y="489.5" width="73.2" height="24.65" shape-rendering="crispEdges"/><rect fill="#1e1e1e" x="183" y="489.5" width="24.4" height="24.65" shape-rendering="crispEdges"/><rect fill="#1e1e1e" x="207.4" y="489.5" width="48.8" height="24.65" shape-rendering="crispEdges"/><rect fill="#1e1e1e" x="256.2" y="489.5" width="12.2" height="24.65" shape-rendering="crispEdges"/><rect fill="#1e1e1e" x="268.4" y="489.5" width="1183.4" height="24.65" shape-rendering="crispEdges"/><rect fill="#1e1e1e" x="1451.8" y="489.5" width="12.2" height="24.65" shape-rendering="crispEdges"/><rect fill="#1e1e1e" x="0" y="513.9" width="12.2" height="24.65" shape-rendering="crispEdges"/><rect fill="#1e1e1e" x="12.2" y="513.9" width="48.8" height="24.65" shape-rendering="crispEdges"/><rect fill="#1e1e1e" x="61" y="513.9" width="48.8" height="24.65" shape-rendering="crispEdges"/><rect fill="#1e1e1e" x="109.8" y="513.9" width="183" height="24.65" shape-rendering="crispEdges"/><rect fill="#1e1e1e" x="292.8" y="513.9" width="24.4" height="24.65" shape-rendering="crispEdges"/><rect fill="#1e1e1e" x="317.2" y="513.9" width="48.8" height="24.65" shape-rendering="crispEdges"/><rect fill="#1e1e1e" x="366" y="513.9" width="1085.8" height="24.65" shape-rendering="crispEdges"/><rect fill="#1e1e1e" x="1451.8" y="513.9" width="12.2" height="24.65" shape-rendering="crispEdges"/><rect fill="#1e1e1e" x="0" y="538.3" width="12.2" height="24.65" shape-rendering="crispEdges"/><rect fill="#1e1e1e" x="12.2" y="538.3" width="48.8" height="24.65" shape-rendering="crispEdges"/><rect fill="#1e1e1e" x="61" y="538.3" width="12.2" height="24.65" shape-rendering="crispEdges"/><rect fill="#1e1e1e" x="73.2" y="538.3" width="1378.6" height="24.65" shape-rendering="crispEdges"/><rect fill="#1e1e1e" x="1451.8" y="538.3" width="12.2" height="24.65" shape-rendering="crispEdges"/><rect fill="#1e1e1e" x="0" y="562.7" width="12.2" height="24.65" shape-rendering="crispEdges"/><rect fill="#1e1e1e" x="12.2" y="562.7" width="48.8" height="24.65" shape-rendering="crispEdges"/><rect fill="#1e1e1e" x="61" y="562.7" width="1390.8" height="24.65" shape-rendering="crispEdges"/><rect fill="#1e1e1e" x="1451.8" y="562.7" width="12.2" height="24.65" shape-rendering="crispEdges"/><rect fill="#1e1e1e" x="0" y="587.1" width="12.2" height="24.65" shape-rendering="crispEdges"/><rect fill="#1e1e1e" x="12.2" y="587.1" width="48.8" height="24.65" shape-rendering="crispEdges"/><rect fill="#1e1e1e" x="61" y="587.1" width="1390.8" height="24.65" shape-rendering="crispEdges"/><rect fill="#1e1e1e" x="1451.8" y="587.1" width="12.2" height="24.65" shape-rendering="crispEdges"/><rect fill="#1e1e1e" x="0" y="611.5" width="12.2" height="24.65" shape-rendering="crispEdges"/><rect fill="#1e1e1e" x="12.2" y="611.5" width="48.8" height="24.65" shape-rendering="crispEdges"/><rect fill="#1e1e1e" x="61" y="611.5" width="1390.8" height="24.65" shape-rendering="crispEdges"/><rect fill="#1e1e1e" x="1451.8" y="611.5" width="12.2" height="24.65" shape-rendering="crispEdges"/><rect fill="#1e1e1e" x="0" y="635.9" width="12.2" height="24.65" shape-rendering="crispEdges"/><rect fill="#1e1e1e" x="12.2" y="635.9" width="48.8" height="24.65" shape-rendering="crispEdges"/><rect fill="#1e1e1e" x="61" y="635.9" width="1390.8" height="24.65" shape-rendering="crispEdges"/><rect fill="#1e1e1e" x="1451.8" y="635.9" width="12.2" height="24.65" shape-rendering="crispEdges"/><rect fill="#1e1e1e" x="0" y="660.3" width="12.2" height="24.65" shape-rendering="crispEdges"/><rect fill="#1e1e1e" x="12.2" y="660.3" width="48.8" height="24.65" shape-rendering="crispEdges"/><rect fill="#1e1e1e" x="61" y="660.3" width="1390.8" height="24.65" shape-rendering="crispEdges"/><rect fill="#1e1e1e" x="1451.8" y="660.3" width="12.2" height="24.65" shape-rendering="crispEdges"/><rect fill="#1e1e1e" x="0" y="684.7" width="12.2" height="24.65" shape-rendering="crispEdges"/><rect fill="#1e1e1e" x="12.2" y="684.7" width="48.8" height="24.65" shape-rendering="crispEdges"/><rect fill="#1e1e1e" x="61" y="684.7" width="1390.8" height="24.65" shape-rendering="crispEdges"/><rect fill="#1e1e1e" x="1451.8" y="684.7" width="12.2" height="24.65" shape-rendering="crispEdges"/><rect fill="#1e1e1e" x="0" y="709.1" width="12.2" height="24.65" shape-rendering="crispEdges"/><rect fill="#1e1e1e" x="12.2" y="709.1" width="48.8" height="24.65" shape-rendering="crispEdges"/><rect fill="#1e1e1e" x="61" y="709.1" width="1390.8" height="24.65" shape-rendering="crispEdges"/><rect fill="#1e1e1e" x="1451.8" y="709.1" width="12.2" height="24.65" shape-rendering="crispEdges"/><rect fill="#1e1e1e" x="0" y="733.5" width="12.2" height="24.65" shape-rendering="crispEdges"/><rect fill="#005f00" x="12.2" y="733.5" width="97.6" height="24.65" shape-rendering="crispEdges"/><rect fill="#1e1e1e" x="109.8" y="733.5" width="1134.6" height="24.65" shape-rendering="crispEdges"/><rect fill="#1e1e1e" x="1244.4" y="733.5" width="183" height="24.65" shape-rendering="crispEdges"/><rect fill="#1e1e1e" x="1427.4" y="733.5" width="24.4" height="24.65" shape-rendering="crispEdges"/><rect fill="#1e1e1e" x="1451.8" y="733.5" width="12.2" height="24.65" shape-rendering="crispEdges"/><rect fill="#1e1e1e" x="0" y="757.9" width="12.2" height="24.65" shape-rendering="crispEdges"/><rect fill="#1e1e1e" x="12.2" y="757.9" width="0" height="24.65" shape-rendering="crispEdges"/><rect fill="#1e1e1e" x="12.2" y="757.9" width="1439.6" height="24.65" shape-rendering="crispEdges"/><rect fill="#1e1e1e" x="1451.8" y="757.9" width="12.2" height="24.65" shape-rendering="crispEdges"/>
    <g class="terminal-1541186607-matrix">
    <text class="terminal-1541186607-r2" x="12.2" y="20" textLength="12.2" clip-path="url(#terminal-1541186607-line-0)">⭘</text><text class="terminal-1541186607-r2" x="561.2" y="20" textLength="134.2" clip-path="url(#terminal-1541186607-line-0)">JSON&#160;Editor</text><text class="terminal-1541186607-r3" x="695.4" y="20" textLength="36.6" clip-path="url(#terminal-1541186607-line-0)">&#160;—&#160;</text><text class="terminal-1541186607-r3" x="732" y="20" textLength="134.2" clip-path="url(#terminal-1541186607-line-0)">users.jsonl</text><text class="terminal-1541186607-r4" x="1354.2" y="20" textLength="97.6" clip-path="url(#terminal-1541186607-line-0)">14:14:54</text><text class="terminal-1541186607-r1" x="1464" y="20" textLength="12.2" clip-path="url(#terminal-1541186607-line-0)">
</text><text class="terminal-1541186607-r5" x="12.2" y="44.4" textLength="48.8" clip-path="url(#terminal-1541186607-line-1)">&#160;&#160;1&#160;</text><text class="terminal-1541186607-r6" x="61" y="44.4" textLength="36.6" clip-path="url(#terminal-1541186607-line-1)">&#160;1&#160;</text><text class="terminal-1541186607-r7" x="97.6" y="44.4" textLength="12.2" clip-path="url(#terminal-1541186607-line-1)">{</text><text class="terminal-1541186607-r1" x="1464" y="44.4" textLength="12.2" clip-path="url(#terminal-1541186607-line-1)">
</text><text class="terminal-1541186607-r5" x="12.2" y="68.8" textLength="48.8" clip-path="url(#terminal-1541186607-line-2)">&#160;&#160;2&#160;</text><text class="terminal-1541186607-r9" x="146.4" y="68.8" textLength="48.8" clip-path="url(#terminal-1541186607-line-2)">&quot;id&quot;</text><text class="terminal-1541186607-r8" x="195.2" y="68.8" textLength="24.4" clip-path="url(#terminal-1541186607-line-2)">:&#160;</text><text class="terminal-1541186607-r10" x="219.6" y="68.8" textLength="12.2" clip-path="url(#terminal-1541186607-line-2)">1</text><text class="terminal-1541186607-r8" x="231.8" y="68.8" textLength="12.2" clip-path="url(#terminal-1541186607-line-2)">,</text><text class="terminal-1541186607-r1" x="1464" y="68.8" textLength="12.2" clip-path="url(#terminal-1541186607-line-2)">
</text><text class="terminal-1541186607-r5" x="12.2" y="93.2" textLength="48.8" clip-path="url(#terminal-1541186607-line-3)">&#160;&#160;3&#160;</text><text class="terminal-1541186607-r9" x="146.4" y="93.2" textLength="73.2" clip-path="url(#terminal-1541186607-line-3)">&quot;name&quot;</text><text class="terminal-1541186607-r8" x="219.6" y="93.2" textLength="24.4" clip-path="url(#terminal-1541186607-line-3)">:&#160;</text><text class="terminal-1541186607-r11" x="244" y="93.2" textLength="85.4" clip-path="url(#terminal-1541186607-line-3)">&quot;Alice&quot;</text><text class="terminal-1541186607-r8" x="329.4" y="93.2" textLength="12.2" clip-path="url(#terminal-1541186607-line-3)">,</text><text class="terminal-1541186607-r1" x="1464" y="93.2" textLength="12.2" clip-path="url(#terminal-1541186607-line-3)">
</text><text class="terminal-1541186607-r5" x="12.2" y="117.6" textLength="48.8" clip-path="url(#terminal-1541186607-line-4)">&#160;&#160;4&#160;</text><text class="terminal-1541186607-r9" x="146.4" y="117.6" textLength="73.2" clip-path="url(#terminal-1541186607-line-4)">&quot;role&quot;</text><text class="terminal-1541186607-r8" x="219.6" y="117.6" textLength="24.4" clip-path="url(#terminal-1541186607-line-4)">:&#160;</text><text class="terminal-1541186607-r11" x="244" y="117.6" textLength="85.4" clip-path="url(#terminal-1541186607-line-4)">&quot;admin&quot;</text><text class="terminal-1541186607-r8" x="329.4" y="117.6" textLength="12.2" clip-path="url(#terminal-1541186607-line-4)">,</text><text class="terminal-1541186607-r1" x="1464" y="117.6" textLength="12.2" clip-path="url(#terminal-1541186607-line-4)">
</text><text class="terminal-1541186607-r5" x="12.2" y="142" textLength="48.8" clip-path="url(#terminal-1541186607-line-5)">&#160;&#160;5&#160;</text><text class="terminal-1541186607-r9" x="146.4" y="142" textLength="97.6" clip-path="url(#terminal-1541186607-line-5)">&quot;config&quot;</text><text class="terminal-1541186607-r8" x="244" y="142" textLength="24.4" clip-path="url(#terminal-1541186607-line-5)">:&#160;</text><text class="terminal-1541186607-r11" x="268.4" y="142" textLength="12.2" clip-path="url(#terminal-1541186607-line-5)">&quot;</text><text class="terminal-1541186607-r7" x="280.6" y="142" textLength="12.2" clip-path="url(#terminal-1541186607-line-5)">{</text><text class="terminal-1541186607-r11" x="292.8" y="142" textLength="695.4" clip-path="url(#terminal-1541186607-line-5)">\&quot;theme\&quot;:\&quot;dark\&quot;,\&quot;lang\&quot;:\&quot;ko\&quot;,\&quot;notifications\&quot;:true</text><text class="terminal-1541186607-r7" x="988.2" y="142" textLength="12.2" clip-path="url(#terminal-1541186607-line-5)">}</text><text class="terminal-1541186607-r11" x="1000.4" y="142" textLength="12.2" clip-path="url(#terminal-1541186607-line-5)">&quot;</text><text class="terminal-1541186607-r8" x="1012.6" y="142" textLength="12.2" clip-path="url(#terminal-1541186607-line-5)">,</text><text class="terminal-1541186607-r1" x="1464" y="142" textLength="12.2" clip-path="url(#terminal-1541186607-line-5)">
</text><text class="terminal-1541186607-r5" x="12.2" y="166.4" textLength="48.8" clip-path="url(#terminal-1541186607-line-6)">&#160;&#160;6&#160;</text><text class="terminal-1541186607-r9" x="146.4" y="166.4" textLength="61" clip-path="url(#terminal-1541186607-line-6)">&quot;bio&quot;</text><text class="terminal-1541186607-r8" x="207.4" y="166.4" textLength="24.4" clip-path="url(#terminal-1541186607-line-6)">:&#160;</text><text class="terminal-1541186607-r11" x="231.8" y="166.4" textLength="256.2" clip-path="url(#terminal-1541186607-line-6)">&quot;Software&#160;engineer&#160;wi</text><text class="terminal-1541186607-r13" x="488" y="166.4" textLength="183" clip-path="url(#terminal-1541186607-line-6)">...&quot;&#160;(92&#160;chars)</text><text class="terminal-1541186607-r1" x="1464" y="166.4" textLength="12.2" clip-path="url(#terminal-1541186607-line-6)">
</text><text class="terminal-1541186607-r5" x="12.2" y="190.8" textLength="48.8" clip-path="url(#terminal-1541186607-line-7)">&#160;&#160;7&#160;</text><text class="terminal-1541186607-r7" x="97.6" y="190.8" textLength="12.2" clip-path="url(#terminal-1541186607-line-7)">}</text><text class="terminal-1541186607-r1" x="1464" y="190.8" textLength="12.2" clip-path="url(#terminal-1541186607-line-7)">
</text><text class="terminal-1541186607-r5" x="12.2" y="215.2" textLength="48.8" clip-path="url(#terminal-1541186607-line-8)">&#160;&#160;8&#160;</text><text class="terminal-1541186607-r1" x="1464" y="215.2" textLength="12.2" clip-path="url(#terminal-1541186607-line-8)">
</text><text class="terminal-1541186607-r5" x="12.2" y="239.6" textLength="48.8" clip-path="url(#terminal-1541186607-line-9)">&#160;&#160;9&#160;</text><text class="terminal-1541186607-r6" x="61" y="239.6" textLength="36.6" clip-path="url(#terminal-1541186607-line-9)">&#160;2&#160;</text><text class="terminal-1541186607-r7" x="97.6" y="239.6" textLength="12.2" clip-path="url(#terminal-1541186607-line-9)">{</text><text class="terminal-1541186607-r13" x="109.8" y="239.6" textLength="170.8" clip-path="url(#terminal-1541186607-line-9)">&#160;...&#160;(6&#160;lines)</text><text class="terminal-1541186607-r1" x="1464" y="239.6" textLength="12.2" clip-path="url(#terminal-1541186607-line-9)">
</text><text class="terminal-1541186607-r5" x="12.2" y="264" textLength="48.8" clip-path="url(#terminal-1541186607-line-10)">&#160;16&#160;</text><text class="terminal-1541186607-r1" x="1464" y="264" textLength="12.2" clip-path="url(#terminal-1541186607-line-10)">
</text><text class="terminal-1541186607-r5" x="12.2" y="288.4" textLength="48.8" clip-path="url(#terminal-1541186607-line-11)">&#160;17&#160;</text><text class="terminal-1541186607-r6" x="61" y="288.4" textLength="36.6" clip-path="url(#terminal-1541186607-line-11)">&#160;3&#160;</text><text class="terminal-1541186607-r7" x="97.6" y="288.4" textLength="12.2" clip-path="url(#terminal-1541186607-line-11)">{</text><text class="terminal-1541186607-r1" x="1464" y="288.4" textLength="12.2" clip-path="url(#terminal-1541186607-line-11)">
</text><text class="terminal-1541186607-r5" x="12.2" y="312.8" textLength="48.8" clip-path="url(#terminal-1541186607-line-12)">&#160;18&#160;</text><text class="terminal-1541186607-r9" x="146.4" y="312.8" textLength="48.8" clip-path="url(#terminal-1541186607-line-12)">&quot;id&quot;</text><text class="terminal-1541186607-r8" x="195.2" y="312.8" textLength="24.4" clip-path="url(#terminal-1541186607-line-12)">:&#160;</text><text class="terminal-1541186607-r10" x="219.6" y="312.8" textLength="12.2" clip-path="url(#terminal-1541186607-line-12)">3</text><text class="terminal-1541186607-r8" x="231.8" y="312.8" textLength="12.2" clip-path="url(#terminal-1541186607-line-12)">,</text><text class="terminal-1541186607-r1" x="1464" y="312.8" textLength="12.2" clip-path="url(#terminal-1541186607-line-12)">
</text><text class="terminal-1541186607-r5" x="12.2" y="337.2" textLength="48.8" clip-path="url(#terminal-1541186607-line-13)">&#160;19&#160;</text><text class="terminal-1541186607-r9" x="146.4" y="337.2" textLength="73.2" clip-path="url(#terminal-1541186607-line-13)">&quot;name&quot;</text><text class="terminal-1541186607-r8" x="219.6" y="337.2" textLength="24.4" clip-path="url(#terminal-1541186607-line-13)">:&#160;</text><text class="terminal-1541186607-r11" x="244" y="337.2" textLength="109.8" clip-path="url(#terminal-1541186607-line-13)">&quot;Charlie&quot;</text><text class="terminal-1541186607-r8" x="353.8" y="337.2" textLength="12.2" clip-path="url(#terminal-1541186607-line-13)">,</text><text class="terminal-1541186607-r1" x="1464" y="337.2" textLength="12.2" clip-path="url(#terminal-1541186607-line-13)">
</text><text class="terminal-1541186607-r5" x="12.2" y="361.6" textLength="48.8" clip-path="url(#terminal-1541186607-line-14)">&#160;20&#160;</text><text class="terminal-1541186607-r9" x="146.4" y="361.6" textLength="73.2" clip-path="url(#terminal-1541186607-line-14)">&quot;role&quot;</text><text class="terminal-1541186607-r8" x="219.6" y="361.6" textLength="24.4" clip-path="url(#terminal-1541186607-line-14)">:&#160;</text><text class="terminal-1541186607-r11" x="244" y="361.6" textLength="134.2" clip-path="url(#terminal-1541186607-line-14)">&quot;moderator&quot;</text><text class="terminal-1541186607-r8" x="378.2" y="361.6" textLength="12.2" clip-path="url(#terminal-1541186607-line-14)">,</text><text class="terminal-1541186607-r1" x="1464" y="361.6" textLength="12.2" clip-path="url(#terminal-1541186607-line-14)">
</text><text class="terminal-1541186607-r7" x="12.2" y="386" textLength="97.6" clip-path="url(#terminal-1541186607-line-15)">&#160;NORMAL&#160;</text><text class="terminal-1541186607-r7" x="109.8" y="386" textLength="48.8" clip-path="url(#terminal-1541186607-line-15)">&#160;RO&#160;</text><text class="terminal-1541186607-r14" x="1232.2" y="386" textLength="195.2" clip-path="url(#terminal-1541186607-line-15)">&#160;Ln&#160;5/23,&#160;Col&#160;1&#160;</text><text class="terminal-1541186607-r1" x="1464" y="386" textLength="12.2" clip-path="url(#terminal-1541186607-line-15)">
</text><text class="terminal-1541186607-r1" x="1464" y="410.4" textLength="12.2" clip-path="url(#terminal-1541186607-line-16)">
</text><text class="terminal-1541186607-r14" x="12.2" y="434.8" textLength="219.6" clip-path="url(#terminal-1541186607-line-17)">Edit&#160;Embedded&#160;JSON</text><text class="terminal-1541186607-r15" x="244" y="434.8" textLength="109.8" clip-path="url(#terminal-1541186607-line-17)">(level&#160;1)</text><text class="terminal-1541186607-r16" x="1415.2" y="434.8" textLength="36.6" clip-path="url(#terminal-1541186607-line-17)">&#160;✕&#160;</text><text class="terminal-1541186607-r1" x="1464" y="434.8" textLength="12.2" clip-path="url(#terminal-1541186607-line-17)">
</text><text class="terminal-1541186607-r5" x="12.2" y="459.2" textLength="48.8" clip-path="url(#terminal-1541186607-line-18)">&#160;&#160;1&#160;</text><text class="terminal-1541186607-r17" x="61" y="459.2" textLength="12.2" clip-path="url(#terminal-1541186607-line-18)">{</text><text class="terminal-1541186607-r1" x="1464" y="459.2" textLength="12.2" clip-path="url(#terminal-1541186607-line-18)">
</text><text class="terminal-1541186607-r5" x="12.2" y="483.6" textLength="48.8" clip-path="url(#terminal-1541186607-line-19)">&#160;&#160;2&#160;</text><text class="terminal-1541186607-r9" x="109.8" y="483.6" textLength="85.4" clip-path="url(#terminal-1541186607-line-19)">&quot;theme&quot;</text><text class="terminal-1541186607-r8" x="195.2" y="483.6" textLength="24.4" clip-path="url(#terminal-1541186607-line-19)">:&#160;</text><text class="terminal-1541186607-r11" x="219.6" y="483.6" textLength="73.2" clip-path="url(#terminal-1541186607-line-19)">&quot;dark&quot;</text><text class="terminal-1541186607-r8" x="292.8" y="483.6" textLength="12.2" clip-path="url(#terminal-1541186607-line-19)">,</text><text class="terminal-1541186607-r1" x="1464" y="483.6" textLength="12.2" clip-path="url(#terminal-1541186607-line-19)">
</text><text class="terminal-1541186607-r5" x="12.2" y="508" textLength="48.8" clip-path="url(#terminal-1541186607-line-20)">&#160;&#160;3&#160;</text><text class="terminal-1541186607-r9" x="109.8" y="508" textLength="73.2" clip-path="url(#terminal-1541186607-line-20)">&quot;lang&quot;</text><text class="terminal-1541186607-r8" x="183" y="508" textLength="24.4" clip-path="url(#terminal-1541186607-line-20)">:&#160;</text><text class="terminal-1541186607-r11" x="207.4" y="508" textLength="48.8" clip-path="url(#terminal-1541186607-line-20)">&quot;ko&quot;</text><text class="terminal-1541186607-r8" x="256.2" y="508" textLength="12.2" clip-path="url(#terminal-1541186607-line-20)">,</text><text class="terminal-1541186607-r1" x="1464" y="508" textLength="12.2" clip-path="url(#terminal-1541186607-line-20)">
</text><text class="terminal-1541186607-r5" x="12.2" y="532.4" textLength="48.8" clip-path="url(#terminal-1541186607-line-21)">&#160;&#160;4&#160;</text><text class="terminal-1541186607-r9" x="109.8" y="532.4" textLength="183" clip-path="url(#terminal-1541186607-line-21)">&quot;notifications&quot;</text><text class="terminal-1541186607-r8" x="292.8" y="532.4" textLength="24.4" clip-path="url(#terminal-1541186607-line-21)">:&#160;</text><text class="terminal-1541186607-r18" x="317.2" y="532.4" textLength="48.8" clip-path="url(#terminal-1541186607-line-21)">true</text><text class="terminal-1541186607-r1" x="1464" y="532.4" textLength="12.2" clip-path="url(#terminal-1541186607-line-21)">
</text><text class="terminal-1541186607-r5" x="12.2" y="556.8" textLength="48.8" clip-path="url(#terminal-1541186607-line-22)">&#160;&#160;5&#160;</text><text class="terminal-1541186607-r7" x="61" y="556.8" textLength="12.2" clip-path="url(#terminal-1541186607-line-22)">}</text><text class="terminal-1541186607-r1" x="1464" y="556.8" textLength="12.2" clip-path="url(#terminal-1541186607-line-22)">
</text><text class="terminal-1541186607-r19" x="12.2" y="581.2" textLength="48.8" clip-path="url(#terminal-1541186607-line-23)">&#160;&#160;~&#160;</text><text class="terminal-1541186607-r1" x="1464" y="581.2" textLength="12.2" clip-path="url(#terminal-1541186607-line-23)">
</text><text class="terminal-1541186607-r19" x="12.2" y="605.6" textLength="48.8" clip-path="url(#terminal-1541186607-line-24)">&#160;&#160;~&#160;</text><text class="terminal-1541186607-r1" x="1464" y="605.6" textLength="12.2" clip-path="url(#terminal-1541186607-line-24)">
</text><text class="terminal-1541186607-r19" x="12.2" y="630" textLength="48.8" clip-path="url(#terminal-1541186607-line-25)">&#160;&#160;~&#160;</text><text class="terminal-1541186607-r1" x="1464" y="630" textLength="12.2" clip-path="url(#terminal-1541186607-line-25)">
</text><text class="terminal-1541186607-r19" x="12.2" y="654.4" textLength="48.8" clip-path="url(#terminal-1541186607-line-26)">&#160;&#160;~&#160;</text><text class="terminal-1541186607-r1" x="1464" y="654.4" textLength="12.2" clip-path="url(#terminal-1541186607-line-26)">
</text><text class="terminal-1541186607-r19" x="12.2" y="678.8" textLength="48.8" clip-path="url(#terminal-1541186607-line-27)">&#160;&#160;~&#160;</text><text class="terminal-1541186607-r1" x="1464" y="678.8" textLength="12.2" clip-path="url(#terminal-1541186607-line-27)">
</text><text class="terminal-1541186607-r19" x="12.2" y="703.2" textLength="48.8" clip-path="url(#terminal-1541186607-line-28)">&#160;&#160;~&#160;</text><text class="terminal-1541186607-r1" x="1464" y="703.2" textLength="12.2" clip-path="url(#terminal-1541186607-line-28)">
</text><text class="terminal-1541186607-r19" x="12.2" y="727.6" textLength="48.8" clip-path="url(#terminal-1541186607-line-29)">&#160;&#160;~&#160;</text><text class="terminal-1541186607-r1" x="1464" y="727.6" textLength="12.2" clip-path="url(#terminal-1541186607-line-29)">
</text><text class="terminal-1541186607-r7" x="12.2" y="752" textLength="97.6" clip-path="url(#terminal-1541186607-line-30)">&#160;NORMAL&#160;</text><text class="terminal-1541186607-r14" x="1244.4" y="752" textLength="183" clip-path="url(#terminal-1541186607-line-30)">&#160;Ln&#160;1/5,&#160;Col&#160;1&#160;</text><text class="terminal-1541186607-r1" x="1464" y="752" textLength="12.2" clip-path="url(#terminal-1541186607-line-30)">
</text>
    </g>
    </g>
</svg>
